<svg width="19" height="27" viewBox="0 0 19 27" fill="none" xmlns="http://www.w3.org/2000/svg">
<path d="M15.0615 7.83291C16.4815 4.63384 16.91 3.71191 18.5358 0H16.2599L13.1675 6.95764C13.8297 7.19055 14.4633 7.48442 15.0615 7.83291Z" fill="#44C283"/>
<path d="M9.50001 6.33333C10.2255 6.33333 10.9347 6.40379 11.6216 6.53758L14.5272 0H12.2026C11.3894 1.84131 10.3332 4.23251 9.49637 6.12713L6.78407 0H4.47282L7.3784 6.53758C8.0653 6.40379 8.77453 6.33333 9.50001 6.33333Z" fill="#44C283"/>
<path d="M5.8324 6.95764L2.74009 0H0.444946L3.93477 7.83512C4.53401 7.48568 5.16893 7.19108 5.8324 6.95764Z" fill="#44C283"/>
<path d="M9.5 7.91669C4.2617 7.91669 0 12.1784 0 17.4167C0 22.655 4.2617 26.9167 9.5 26.9167C14.7383 26.9167 19 22.655 19 17.4167C19 12.1784 14.7383 7.91669 9.5 7.91669ZM6.45467 21.7631L7.03628 18.3721L4.57256 15.9706L7.97736 15.4758L9.5 12.3906L11.0227 15.4758L14.4274 15.9706L11.9637 18.3721L12.5453 21.7631L9.5 20.1621L6.45467 21.7631ZM9.5 18.3733L10.4425 18.8688L10.2625 17.8193L11.0249 17.0761L9.97125 16.923L9.5 15.9682L9.0288 16.923L7.97514 17.0761L8.73757 17.8193L8.55755 18.8688L9.5 18.3733Z" fill="#44C283"/>
</svg>
