<svg width="23" height="23" viewBox="0 0 23 23" fill="none" xmlns="http://www.w3.org/2000/svg">
<path d="M13.5215 2.02148C13.5215 0.906838 12.6146 0 11.5 0C10.3854 0 9.47852 0.906838 9.47852 2.02148C9.47852 3.13613 10.3854 4.04297 11.5 4.04297C12.6146 4.04297 13.5215 3.13613 13.5215 2.02148ZM11.5 2.69531C11.1285 2.69531 10.8262 2.39303 10.8262 2.02148C10.8262 1.64994 11.1285 1.34766 11.5 1.34766C11.8715 1.34766 12.1738 1.64994 12.1738 2.02148C12.1738 2.39303 11.8715 2.69531 11.5 2.69531Z" fill="#D9EAFF"/>
<path d="M14.8691 7.45703C14.8691 5.59457 13.3627 4.04297 11.5 4.04297C9.63754 4.04297 8.13086 5.59435 8.13086 7.45703V8.13086H14.8691V7.45703ZM9.59343 6.7832C9.87378 5.98211 10.6338 5.39062 11.5 5.39062C12.3662 5.39062 13.1262 5.98211 13.4066 6.7832H9.59343Z" fill="#D9EAFF"/>
<path d="M21.6074 10.1523C21.6074 9.0377 20.7006 8.13086 19.5859 8.13086C18.4713 8.13086 17.5645 9.0377 17.5645 10.1523C17.5645 11.267 18.4713 12.1738 19.5859 12.1738C20.7006 12.1738 21.6074 11.267 21.6074 10.1523ZM19.5859 10.8262C19.2144 10.8262 18.9121 10.5239 18.9121 10.1523C18.9121 9.78079 19.2144 9.47852 19.5859 9.47852C19.9575 9.47852 20.2598 9.78079 20.2598 10.1523C20.2598 10.5239 19.9575 10.8262 19.5859 10.8262Z" fill="#D9EAFF"/>
<path d="M23 15.543C23 13.6806 21.4487 12.1738 19.5859 12.1738C17.7282 12.1738 16.2168 13.6852 16.2168 15.543V16.2168H23V15.543ZM17.6799 14.8691C17.958 14.0848 18.7074 13.5215 19.5859 13.5215C20.466 13.5215 21.2387 14.0928 21.5295 14.8691H17.6799Z" fill="#D9EAFF"/>
<path d="M5.43555 10.1523C5.43555 9.0377 4.52871 8.13086 3.41406 8.13086C2.29942 8.13086 1.39258 9.0377 1.39258 10.1523C1.39258 11.267 2.29942 12.1738 3.41406 12.1738C4.52871 12.1738 5.43555 11.267 5.43555 10.1523ZM3.41406 10.8262C3.04251 10.8262 2.74023 10.5239 2.74023 10.1523C2.74023 9.78079 3.04251 9.47852 3.41406 9.47852C3.78561 9.47852 4.08789 9.78079 4.08789 10.1523C4.08789 10.5239 3.78561 10.8262 3.41406 10.8262Z" fill="#D9EAFF"/>
<path d="M6.7832 15.543C6.7832 13.6852 5.27181 12.1738 3.41406 12.1738C1.55169 12.1738 0 13.6802 0 15.543V16.2168H6.7832V15.543ZM1.47052 14.8691C1.76134 14.0928 2.53404 13.5215 3.41406 13.5215C4.29255 13.5215 5.04199 14.0848 5.3201 14.8691H1.47052Z" fill="#D9EAFF"/>
<path d="M9.47852 16.8906C9.47852 18.0053 10.3854 18.9121 11.5 18.9121C12.6146 18.9121 13.5215 18.0053 13.5215 16.8906C13.5215 15.776 12.6146 14.8691 11.5 14.8691C10.3854 14.8691 9.47852 15.776 9.47852 16.8906ZM12.1738 16.8906C12.1738 17.2622 11.8715 17.5645 11.5 17.5645C11.1285 17.5645 10.8262 17.2622 10.8262 16.8906C10.8262 16.5191 11.1285 16.2168 11.5 16.2168C11.8715 16.2168 12.1738 16.5191 12.1738 16.8906Z" fill="#D9EAFF"/>
<path d="M14.8691 22.3262C14.8691 20.4684 13.3577 18.957 11.5 18.957C9.64226 18.957 8.13086 20.4684 8.13086 22.3262V23H14.8691V22.3262ZM9.59397 21.6523C9.87208 20.868 10.6215 20.3047 11.5 20.3047C12.3785 20.3047 13.1279 20.868 13.406 21.6523H9.59397Z" fill="#D9EAFF"/>
<path d="M4.08789 6.10938C4.08789 4.98925 5.0136 4.04297 6.10938 4.04297H6.7832V2.69531H6.10938C4.24696 2.69531 2.74023 4.24669 2.74023 6.10938V6.7832H4.08789V6.10938Z" fill="#D9EAFF" fill-opacity="0.5"/>
<path d="M18.9121 6.10938V6.7832H20.2598V6.10938C20.2598 4.24696 18.7533 2.69531 16.8906 2.69531H16.2168V4.04297H16.8906C17.9864 4.04297 18.9121 4.98925 18.9121 6.10938Z" fill="#D9EAFF" fill-opacity="0.5"/>
<path d="M2.74023 17.5645V18.2383C2.74023 20.1007 4.24669 21.6523 6.10938 21.6523H6.7832V20.3047H6.10938C5.0136 20.3047 4.08789 19.3584 4.08789 18.2383V17.5645H2.74023Z" fill="#D9EAFF" fill-opacity="0.5"/>
<path d="M20.2598 18.2383V17.5645H18.9121V18.2383C18.9121 19.3584 17.9864 20.3047 16.8906 20.3047H16.2168V21.6523H16.8906C18.753 21.6523 20.2598 20.101 20.2598 18.2383Z" fill="#D9EAFF" fill-opacity="0.5"/>
</svg>
