<svg width="25" height="26" viewBox="0 0 25 26" fill="none" xmlns="http://www.w3.org/2000/svg">
<path d="M22.931 16.3822C23.6213 17.0765 24.2979 17.7561 25 18.4622C24.4783 18.9356 23.9253 19.4384 23.3712 19.9393C21.5395 21.5941 19.7127 23.2529 17.8682 24.893C17.6946 25.0472 17.4142 25.1542 17.1828 25.1562C14.7323 25.1749 12.2818 25.1719 9.8323 25.1611C9.59794 25.1601 9.34397 25.1071 9.13315 25.0059C7.66227 24.2998 6.2012 23.574 4.73424 22.8581C4.52342 22.755 4.36456 22.6686 4.36554 22.368C4.38025 19.4394 4.37535 16.5108 4.37731 13.5822C4.37731 13.5351 4.393 13.4889 4.41261 13.3779C5.41281 13.3779 6.42085 13.4123 7.42497 13.3662C8.07902 13.3357 8.61442 13.5037 9.14687 13.8818C10.2245 14.6488 11.3326 15.3726 12.4456 16.0875C12.6623 16.227 12.9525 16.3105 13.2104 16.3144C14.6931 16.335 16.1757 16.3242 17.6868 16.3242C17.6868 17.3191 17.6868 18.2737 17.6868 19.2725C15.0088 19.2725 12.3534 19.2725 9.66266 19.2725C9.66266 19.7645 9.66266 20.2143 9.66266 20.7142C9.78818 20.724 9.92742 20.7446 10.0657 20.7446C12.5319 20.7456 14.999 20.7505 17.4652 20.7328C17.6838 20.7309 17.9457 20.6346 18.1124 20.4942C19.7372 19.1271 21.3453 17.7404 22.931 16.3822Z" fill="#2184FA"/>
<path d="M16.8347 6.02011C15.2903 5.99851 13.6105 5.79718 12.0544 5.02427C11.6366 4.81705 11.2326 4.5401 10.8982 4.21699C10.1824 3.52461 10.1491 2.65841 10.859 1.96406C11.2924 1.53882 11.82 1.14893 12.378 0.924028C15.4344 -0.311446 18.5184 -0.302607 21.5807 0.918135C22.0269 1.09589 22.4525 1.37579 22.8251 1.68319C23.8773 2.55136 23.8684 3.66702 22.7643 4.47528C22.2211 4.87303 21.5847 5.17551 20.9502 5.41121C19.6823 5.88065 18.3477 6.01029 16.8347 6.02011Z" fill="#2184FA"/>
<path d="M10.355 5.02525C10.8345 5.88556 11.6072 6.37072 12.473 6.68793C15.4697 7.78493 18.484 7.78788 21.4797 6.68793C22.3436 6.37072 23.1261 5.89637 23.5752 4.88383C23.5752 5.69602 23.6301 6.39527 23.5605 7.08175C23.4791 7.891 22.9751 8.48615 22.3416 8.96344C21.3375 9.72064 20.1765 10.0919 18.9537 10.2804C17.0543 10.5721 15.1736 10.5034 13.3457 9.85715C12.8574 9.6843 12.3769 9.45744 11.9366 9.1854C10.8953 8.54114 10.2697 7.64253 10.3501 6.35009C10.3775 5.90913 10.355 5.46621 10.355 5.02525Z" fill="#2184FA"/>
<path d="M10.355 9.42503C10.757 10.1518 11.3571 10.5927 12.0494 10.9178C13.9498 11.8105 15.9668 12.003 18.029 11.8655C19.3901 11.7742 20.7168 11.5169 21.9494 10.9001C22.6162 10.5662 23.2144 10.1459 23.5203 9.41521C23.7605 11.6122 23.686 12.7258 21.5738 13.8602C19.8205 14.801 17.9006 14.9572 15.9502 14.8128C14.5685 14.7107 13.2389 14.4033 12.0376 13.6755C10.9227 12.9998 10.253 12.0698 10.3501 10.6959C10.3795 10.2736 10.355 9.84831 10.355 9.42503Z" fill="#2184FA"/>
<path d="M0 11.9274C0.967837 11.9274 1.9092 11.9274 2.87998 11.9274C2.87998 15.8469 2.87998 19.7468 2.87998 23.6723C1.919 23.6723 0.978624 23.6723 0 23.6723C0 19.7733 0 15.8744 0 11.9274Z" fill="#2184FA"/>
</svg>
