<svg width="25" height="26" viewBox="0 0 25 26" fill="none" xmlns="http://www.w3.org/2000/svg">
<path d="M3.19938 15.1571H1.69877C1.30997 15.1571 0.995361 15.4717 0.995361 15.8605V24.3014C0.995361 24.6902 1.30997 25.0048 1.69877 25.0048H3.19938C4.36301 25.0048 5.30961 24.0582 5.30961 22.8946V17.2673C5.30961 16.1037 4.36306 15.1571 3.19938 15.1571Z" fill="#E9D500"/>
<path d="M24.794 16.5217C24.7096 16.381 24.5971 16.2685 24.4705 16.17C23.9526 15.7169 23.0799 15.7597 22.5714 16.3107L19.3778 19.9966L19.2794 20.1091C18.8855 20.5452 18.3227 20.7844 17.7319 20.7844H12.2734C11.8795 20.7844 11.57 20.4748 11.57 20.081C11.57 19.687 11.8795 19.3776 12.2734 19.3776H16.5642C17.338 19.3776 17.9711 18.7445 17.9711 17.9708V17.9567C17.957 17.1829 17.338 16.5639 16.5642 16.5639H14.0179C13.596 16.5639 13.144 16.409 12.7799 16.0996C11.0636 14.5943 8.55943 14.4959 6.71649 15.7761V24.428C8.10924 24.8079 9.5442 25.0049 10.9932 25.0049H17.2676C18.8151 25.0049 20.2782 24.2733 21.2067 23.0353L24.5832 18.5334C25.0757 17.8868 25.1128 17 24.794 16.5217Z" fill="#E9D500"/>
<path d="M19.8566 2.35481C19.0764 1.47798 17.9949 0.995117 16.8113 0.995117C15.4902 0.995117 14.345 1.61979 13.4996 2.80157C13.4362 2.89015 13.3768 2.97878 13.3213 3.06647C13.2658 2.97873 13.2064 2.89015 13.143 2.80157C12.2976 1.61979 11.1524 0.995117 9.83128 0.995117C8.64768 0.995117 7.56616 1.47798 6.78603 2.35476C6.04567 3.18685 5.63788 4.29922 5.63788 5.487C5.63788 6.77776 6.13875 7.96882 7.21403 9.23543C8.15234 10.3405 9.49815 11.4764 11.0564 12.7917C11.6323 13.2777 12.2278 13.7803 12.8606 14.3288C12.9928 14.4433 13.157 14.5006 13.3213 14.5006C13.4855 14.5006 13.6498 14.4433 13.782 14.3288C14.4147 13.7804 15.0101 13.2779 15.5859 12.7919C16.5867 11.9472 17.451 11.2177 18.2011 10.5101C19.6573 9.13615 21.0047 7.57669 21.0047 5.48705C21.0047 4.29927 20.597 3.1869 19.8566 2.35481Z" fill="#E9D500"/>
</svg>
