<svg width="24" height="24" viewBox="0 0 24 24" fill="none" xmlns="http://www.w3.org/2000/svg">
<path d="M18.2584 4.09791C18.2584 3.53484 18.0387 3.00478 17.6404 2.60653L15.6519 0.618C15.2592 0.225234 14.7017 0 14.1469 0H14.026V4.21875H18.2585L18.2584 4.09791Z" fill="#E9D500"/>
<path d="M12.8408 14.5095C12.9754 14.101 13.2102 13.7206 13.5165 13.4123L18.2772 8.67075V5.625H13.3365C12.9479 5.625 12.6562 5.31052 12.6562 4.92188V0H2.10938C0.946219 0 0 0.946219 0 2.10938V21.8906C0 23.0538 0.946219 24 2.10938 24H16.149C17.3122 24 18.2772 23.0538 18.2772 21.8906V16.6429L17.5045 17.3969C17.1914 17.7072 16.8248 17.9331 16.4114 18.0712L14.1757 18.8175L13.8351 18.8361C13.272 18.8361 12.7392 18.5621 12.4082 18.1035C12.08 17.6468 11.9908 17.055 12.1693 16.5201L12.8408 14.5095ZM3.51562 12.6562H10.524C10.9127 12.6562 11.2272 12.9707 11.2272 13.3594C11.2272 13.748 10.9127 14.0625 10.524 14.0625H3.51562C3.12698 14.0625 2.8125 13.748 2.8125 13.3594C2.8125 12.9707 3.12698 12.6562 3.51562 12.6562ZM2.8125 10.5469C2.8125 10.1582 3.12698 9.84375 3.51562 9.84375H10.524C10.9127 9.84375 11.2272 10.1582 11.2272 10.5469C11.2272 10.9355 10.9127 11.25 10.524 11.25H3.51562C3.12698 11.25 2.8125 10.9355 2.8125 10.5469ZM2.8125 16.1719C2.8125 15.7832 3.12698 15.4688 3.51562 15.4688H10.524C10.9127 15.4688 11.2272 15.7832 11.2272 16.1719C11.2272 16.5605 10.9127 16.875 10.524 16.875H3.51562C3.12698 16.875 2.8125 16.5605 2.8125 16.1719ZM13.3365 19.6875C13.7252 19.6875 14.0397 20.002 14.0397 20.3906C14.0397 20.7793 13.7252 21.0938 13.3365 21.0938H9.1178C8.72916 21.0938 8.41467 20.7793 8.41467 20.3906C8.41467 20.002 8.72916 19.6875 9.1178 19.6875H13.3365ZM3.51562 8.4375C3.12698 8.4375 2.8125 8.12302 2.8125 7.73438C2.8125 7.34573 3.12698 7.03125 3.51562 7.03125H13.3365C13.7252 7.03125 14.0397 7.34573 14.0397 7.73438C14.0397 8.12302 13.7252 8.4375 13.3365 8.4375H3.51562Z" fill="#E9D500"/>
<path d="M14.1146 15.1316L13.5029 16.9668C13.4112 17.2418 13.6728 17.5033 13.9477 17.4114L15.7818 16.7989L14.1146 15.1316Z" fill="#E9D500"/>
<path d="M19.5754 9.34251L14.9447 13.9732L16.9418 15.9704C17.9884 14.9235 20.0249 12.8868 21.5723 11.3394L19.5754 9.34251Z" fill="#E9D500"/>
<path d="M23.5868 7.32581C23.3396 7.07723 22.9757 6.9351 22.5898 6.9351C22.2038 6.9351 21.84 7.07723 21.5914 7.32651L20.5696 8.34824L22.5664 10.345C23.1258 9.78562 23.5124 9.399 23.5883 9.3232C24.1375 8.77312 24.1374 7.87715 23.5868 7.32581Z" fill="#E9D500"/>
</svg>
