<svg width="22" height="22" viewBox="0 0 22 22" fill="none" xmlns="http://www.w3.org/2000/svg">
<path d="M0 9.91713C1.65554 9.91713 3.28065 9.91713 4.94277 9.91713C4.94277 8.27044 4.94277 6.6583 4.94277 5.00833C5.3548 5.00833 5.73147 5.00833 6.16325 5.00833C6.16325 4.17347 6.16325 3.3748 6.16325 2.53748C7.41662 2.53748 8.61571 2.53748 9.86827 2.53748C9.86827 1.67383 9.86827 0.846374 9.86827 0C10.3 0 10.6784 0 11.1134 0C11.1134 0.829101 11.1134 1.65656 11.1134 2.5202C12.3693 2.5202 13.57 2.5202 14.8077 2.5202C14.8077 3.34766 14.8077 4.13892 14.8077 4.97872C15.2305 4.97872 15.6187 4.97872 16.0422 4.97872C16.0422 6.64021 16.0422 8.25399 16.0422 9.91631C17.7117 9.91631 19.3467 9.91631 21.0039 9.91631C21.0039 13.6341 21.0039 17.3025 21.0039 21.0039C14.019 21.0039 7.02432 21.0039 0.000822424 21.0039C0 17.3363 0 13.6588 0 9.91713ZM6.21588 6.24869C6.21588 10.7775 6.21588 15.275 6.21588 19.7718C7.03748 19.7718 7.82536 19.7718 8.6519 19.7718C8.6519 18.9525 8.6519 18.1613 8.6519 17.3618C9.90034 17.3618 11.1093 17.3618 12.361 17.3618C12.361 18.181 12.361 18.9698 12.361 19.7792C13.1925 19.7792 13.9804 19.7792 14.7806 19.7792C14.7806 15.261 14.7806 10.7635 14.7806 6.24869C11.9169 6.24869 9.08532 6.24869 6.21588 6.24869ZM1.23775 11.1887C1.23775 14.0709 1.23775 16.9242 1.23775 19.7726C2.4829 19.7726 3.69597 19.7726 4.92468 19.7726C4.92468 16.9003 4.92468 14.0561 4.92468 11.1887C3.69104 11.1887 2.47714 11.1887 1.23775 11.1887ZM16.0899 11.1797C16.0899 14.0684 16.0899 16.9209 16.0899 19.7726C17.34 19.7726 18.5514 19.7726 19.7596 19.7726C19.7596 16.8905 19.7596 14.0371 19.7596 11.1797C18.5259 11.1797 17.3235 11.1797 16.0899 11.1797ZM7.42978 4.96391C9.49982 4.96391 11.5271 4.96391 13.5511 4.96391C13.5511 4.55512 13.5511 4.17923 13.5511 3.79676C11.495 3.79676 9.46857 3.79676 7.42978 3.79676C7.42978 4.19732 7.42978 4.56417 7.42978 4.96391ZM11.0929 19.7783C11.0929 19.3687 11.0929 18.992 11.0929 18.598C10.6866 18.598 10.3017 18.598 9.90445 18.598C9.90445 19.0035 9.90445 19.3802 9.90445 19.7783C10.3009 19.7783 10.6759 19.7783 11.0929 19.7783Z" fill="#D9EAFF" fill-opacity="0.8"/>
</svg>
