<svg width="22" height="20" viewBox="0 0 22 20" fill="none" xmlns="http://www.w3.org/2000/svg">
<path d="M9.56323 5.46403V4.09785H1.36618C0.613413 4.09785 0 4.71127 0 5.46403V8.19638H9.85149C9.6616 7.36165 9.56323 6.46271 9.56323 5.46403Z" fill="#44C283"/>
<path d="M21.8028 10.9287C20.8711 12.3646 19.4502 13.5859 17.4146 14.7554C17.1018 14.9343 16.7493 15.0272 16.3941 15.0272C16.0389 15.0272 15.6864 14.9343 15.3777 14.7581C13.3421 13.5859 11.9213 12.3632 10.9882 10.9287H0V17.7596C0 18.5137 0.613413 19.1258 1.36618 19.1258H20.4926C21.2468 19.1258 21.8588 18.5137 21.8588 17.7596V10.9287H21.8028ZM6.14779 15.0272H3.41544C3.03838 15.0272 2.73235 14.7212 2.73235 14.3442C2.73235 13.9671 3.03838 13.6611 3.41544 13.6611H6.14779C6.52486 13.6611 6.83088 13.9671 6.83088 14.3442C6.83088 14.7212 6.52486 15.0272 6.14779 15.0272Z" fill="#44C283"/>
<path d="M21.4449 2.10459L16.6632 0.0553301C16.4897 -0.0184434 16.2971 -0.0184434 16.1236 0.0553301L11.342 2.10459C11.092 2.21116 10.9294 2.45843 10.9294 2.73167V5.46402C10.9294 9.22237 12.3188 11.4192 16.0539 13.5709C16.1591 13.631 16.2766 13.6611 16.3941 13.6611C16.5116 13.6611 16.6291 13.631 16.7343 13.5709C20.4694 11.4246 21.8588 9.22784 21.8588 5.46402V2.73167C21.8588 2.45843 21.6962 2.21116 21.4449 2.10459ZM18.9775 5.20855L16.2452 8.62399C16.114 8.78519 15.9173 8.87946 15.711 8.87946C15.7015 8.87946 15.6905 8.87946 15.6823 8.87946C15.4651 8.8699 15.2643 8.75787 15.1427 8.57617L13.7765 6.52691C13.5675 6.21269 13.6522 5.78917 13.9664 5.58015C14.2779 5.37249 14.7028 5.45446 14.9132 5.77004L15.7616 7.04195L17.9092 4.35605C18.1455 4.06232 18.5759 4.01587 18.8696 4.24949C19.1647 4.48311 19.2112 4.91345 18.9775 5.20855Z" fill="#44C283"/>
</svg>
