<svg width="24" height="24" viewBox="0 0 24 24" fill="none" xmlns="http://www.w3.org/2000/svg">
<path d="M9.83942 22.5949C10.1923 20.0116 8.14416 17.2606 5.71031 17.0245C5.69815 17.239 5.69721 17.4535 5.67194 17.6662C5.60547 18.2282 5.08875 18.5223 4.61228 18.2169C3.16789 17.2924 1.7366 16.3464 0.317485 15.3835C-0.116862 15.0894 -0.101884 14.5405 0.339952 14.2417C1.74783 13.29 3.16508 12.3505 4.59543 11.4326C5.09062 11.1151 5.61951 11.4157 5.67381 12.0049C5.69534 12.2344 5.67755 12.4676 5.67755 12.7346C7.17904 12.8882 8.53544 13.3565 9.84316 14.1658C9.84316 11.3024 9.84316 8.49706 9.84316 5.64114C9.63348 5.64114 9.43409 5.64957 9.23564 5.63926C8.61875 5.60648 8.28738 5.06977 8.61501 4.55928C9.53425 3.12898 10.475 1.71272 11.4317 0.307713C11.7182 -0.112854 12.2939 -0.0988034 12.584 0.32832C13.5304 1.72115 14.4656 3.12336 15.3783 4.53773C15.7087 5.0501 15.3923 5.59805 14.7848 5.63739C14.5854 5.6505 14.3841 5.63926 14.1464 5.63926C14.1464 8.46146 14.1464 11.2443 14.1464 14.0937C15.4419 13.334 16.7927 12.8535 18.3214 12.7327C18.3214 12.477 18.3054 12.2466 18.3242 12.0199C18.3728 11.4251 18.8971 11.1104 19.3894 11.4251C20.8338 12.3496 22.2651 13.2956 23.6833 14.2595C24.1176 14.5545 24.1017 15.0997 23.6571 15.4003C22.2492 16.352 20.831 17.2906 19.4007 18.2066C18.9017 18.526 18.3831 18.2263 18.3251 17.6324C18.3054 17.4348 18.3045 17.2344 18.2951 17.0358C15.822 17.1444 13.6896 20.0125 14.1791 22.5921C15.1789 22.5921 16.1889 22.5921 17.1999 22.5921C17.3712 22.5921 17.5463 22.5762 17.7138 22.6043C18.0826 22.668 18.2989 22.8994 18.3073 23.2768C18.3157 23.6543 18.1061 23.8904 17.7457 23.9803C17.6277 24.0103 17.4976 23.9971 17.3731 23.9971C13.785 23.9981 10.197 23.9981 6.60803 23.9971C6.01735 23.9971 5.69534 23.7508 5.68785 23.304C5.68036 22.8507 6.00144 22.5931 6.5865 22.5912C7.4917 22.5884 8.39596 22.5903 9.30117 22.5903C9.4706 22.5949 9.64097 22.5949 9.83942 22.5949Z" fill="#2184FA"/>
</svg>
