<svg width="19" height="24" viewBox="0 0 19 24" fill="none" xmlns="http://www.w3.org/2000/svg">
<path d="M9.75841 11.6054C9.71504 11.5984 9.67166 11.5967 9.62829 11.6006C9.34029 11.5565 9.12559 11.3072 9.12516 11.0124C9.12516 10.7115 8.88227 10.467 8.58342 10.467C8.28458 10.467 8.04169 10.7115 8.04169 11.0128C8.04255 11.719 8.4841 12.3482 9.13166 12.5923V12.7985C9.13166 13.0993 9.37456 13.3439 9.6734 13.3439C9.97224 13.3439 10.2151 13.0993 10.2151 12.7985V12.6225C10.9711 12.3867 11.4656 11.6474 11.3823 10.839C11.2934 9.97703 10.5777 9.3268 9.71677 9.32636C9.3906 9.32636 9.12516 9.05911 9.12516 8.73072C9.12516 8.40233 9.3906 8.13507 9.71677 8.13507C10.0429 8.13507 10.3084 8.40233 10.3084 8.73072C10.3084 9.03159 10.5513 9.27614 10.8501 9.27614C11.149 9.27614 11.3919 9.03159 11.3919 8.73072C11.391 7.99228 10.9048 7.33943 10.2156 7.12152V6.95558C10.2156 6.6547 9.97268 6.41016 9.67383 6.41016C9.37499 6.41016 9.1321 6.6547 9.1321 6.95558V7.15165C8.40863 7.42327 7.95277 8.17263 8.0573 8.95561C8.16834 9.78925 8.88183 10.4176 9.71677 10.4176H9.71721C10.0373 10.4176 10.3023 10.6797 10.3084 11.0019C10.3136 11.3163 10.069 11.5836 9.75841 11.6054Z" fill="#D9EAFF"/>
<path d="M9.71675 15.1535C12.5946 15.1535 14.9363 12.7963 14.9363 9.89842C14.9363 7.00099 12.595 4.64331 9.71675 4.64331C6.84239 4.64637 4.50109 7.00361 4.49762 9.89798V9.89842C4.49719 12.7963 6.83849 15.1535 9.71675 15.1535ZM5.58066 9.89885C5.58326 7.60537 7.43878 5.73721 9.71675 5.73416C11.9973 5.73416 13.8529 7.60231 13.8529 9.89842C13.8529 12.1945 11.9973 14.0627 9.71675 14.0627C7.43618 14.0627 5.58066 12.1945 5.58066 9.89885Z" fill="#D9EAFF"/>
<path d="M18.9301 18.0817C18.4196 17.1694 17.2924 16.8231 16.3633 17.2926L13.8121 18.5061C13.3853 17.8376 12.6514 17.4157 11.8551 17.393L9.3498 17.3236C8.9846 17.3131 8.61983 17.2183 8.29539 17.0494L8.04079 16.9166C6.77645 16.2528 5.28484 16.2074 3.98927 16.7786L3.99621 16.5188C4.00011 16.3734 3.94763 16.2349 3.84831 16.1288C3.74898 16.0231 3.61452 15.9624 3.46966 15.9585L0.722378 15.8825C0.577944 15.8773 0.440017 15.9314 0.335053 16.0314C0.230089 16.1314 0.1698 16.2668 0.165896 16.4127L0.000209097 22.4835C-0.00803187 22.7839 0.228354 23.0355 0.526764 23.0438L3.27404 23.1198H3.28879C3.5846 23.1198 3.82228 22.8866 3.83052 22.5892L3.8353 22.4128L4.44946 22.0817C4.68628 21.9534 4.9591 21.9232 5.21804 21.9975L9.47776 23.201C9.48947 23.2045 9.50118 23.2071 9.51549 23.2106C9.83515 23.2778 10.1626 23.3119 10.4897 23.3119C10.4914 23.3119 10.4931 23.3119 10.4949 23.3119C11.194 23.3119 11.8702 23.163 12.5039 22.87C12.5278 22.8591 12.5512 22.8464 12.5725 22.832L18.7523 18.8075C18.993 18.6511 19.0707 18.3323 18.9301 18.0817ZM9.54889 19.2057C9.54368 19.2057 9.53891 19.2057 9.53371 19.2057C9.24224 19.2057 9.00065 19.4407 8.99241 19.7363C8.98417 20.0367 9.22055 20.2883 9.51896 20.2966L13.6377 20.4105H13.6529C13.9483 20.4101 14.186 20.1773 14.1938 19.8804C14.1968 19.766 14.192 19.6511 14.179 19.538L16.8304 18.2769C16.8352 18.2747 16.84 18.2725 16.8452 18.2699C17.085 18.1476 17.3652 18.1481 17.6016 18.259L12.0177 21.8957C11.3038 22.2171 10.5218 22.304 9.75491 22.1477L5.51125 20.9485C4.98122 20.7979 4.42257 20.8595 3.93766 21.1215L3.86956 21.1581L3.95501 18.028C5.03848 17.345 6.40344 17.2882 7.542 17.8856L7.79703 18.0188C8.26547 18.2625 8.79202 18.3992 9.31944 18.4149L11.8247 18.4843C12.3547 18.4996 12.8119 18.8254 13.0088 19.3031L9.54889 19.2057ZM2.89886 17.0345L2.76267 22.0145L1.09843 21.9682L1.23462 16.9882L2.89886 17.0345Z" fill="#D9EAFF" fill-opacity="0.4"/>
<path d="M9.71678 4.40444C10.0156 4.40444 10.2585 4.15989 10.2585 3.85901V0.545424C10.2585 0.244545 10.0152 0 9.71678 0C9.41837 0 9.17505 0.244545 9.17505 0.545424V3.85945C9.17505 4.15989 9.41794 4.40444 9.71678 4.40444Z" fill="#D9EAFF"/>
<path d="M12.3152 4.40444C12.6141 4.40444 12.857 4.1599 12.857 3.85902V2.28956C12.857 1.98869 12.6141 1.74414 12.3152 1.74414C12.0164 1.74414 11.7735 1.98869 11.7735 2.28956V3.85946C11.7735 4.1599 12.0164 4.40444 12.3152 4.40444Z" fill="#D9EAFF"/>
<path d="M7.11821 4.40444C7.41706 4.40444 7.65995 4.1599 7.65995 3.85902V2.28956C7.65995 1.98869 7.41706 1.74414 7.11821 1.74414C6.81937 1.74414 6.57648 1.98869 6.57648 2.28956V3.85946C6.57648 4.1599 6.81937 4.40444 7.11821 4.40444Z" fill="#D9EAFF"/>
</svg>
