<svg width="22" height="22" viewBox="0 0 22 22" fill="none" xmlns="http://www.w3.org/2000/svg">
<path d="M20.0234 16.8438H17.4453C17.0894 16.8438 16.8008 16.5552 16.8008 16.1992V0.644531C16.8008 0.288578 17.0894 0 17.4453 0H20.0234C20.3794 0 20.668 0.288578 20.668 0.644531V16.1992C20.668 16.5552 20.3794 16.8438 20.0234 16.8438Z" fill="#2184FA"/>
<path d="M14.8672 16.8438H12.2891C11.9331 16.8438 11.6445 16.5552 11.6445 16.1992V3.30859C11.6445 2.95264 11.9331 2.66406 12.2891 2.66406H14.8672C15.2231 2.66406 15.5117 2.95264 15.5117 3.30859V16.1992C15.5117 16.5552 15.2231 16.8438 14.8672 16.8438Z" fill="#2184FA"/>
<path d="M9.71094 16.8438H7.13281C6.77686 16.8438 6.48828 16.5552 6.48828 16.1992V5.88672C6.48828 5.53077 6.77686 5.24219 7.13281 5.24219H9.71094C10.0669 5.24219 10.3555 5.53077 10.3555 5.88672V16.1992C10.3555 16.5552 10.0669 16.8438 9.71094 16.8438Z" fill="#2184FA"/>
<path d="M4.55469 16.8438H1.97656C1.62061 16.8438 1.33203 16.5552 1.33203 16.1992V8.46484C1.33203 8.10889 1.62061 7.82031 1.97656 7.82031H4.55469C4.91064 7.82031 5.19922 8.10889 5.19922 8.46484V16.1992C5.19922 16.5552 4.91064 16.8438 4.55469 16.8438Z" fill="#2184FA"/>
<path d="M10.3555 20.0664C10.3555 20.2868 10.3778 20.5025 10.4204 20.7109H0.644531C0.28875 20.7109 0 20.4222 0 20.0664C0 19.7106 0.28875 19.4219 0.644531 19.4219H10.4204C10.3778 19.6303 10.3555 19.846 10.3555 20.0664Z" fill="#2184FA"/>
<path d="M22 20.0664C22 20.4222 21.7112 20.7109 21.3555 20.7109H16.7359C16.7784 20.5025 16.8008 20.2868 16.8008 20.0664C16.8008 19.846 16.7784 19.6303 16.7359 19.4219H21.3555C21.7112 19.4219 22 19.7106 22 20.0664Z" fill="#2184FA"/>
<path d="M13.5781 22C12.5119 22 11.6445 21.1326 11.6445 20.0664C11.6445 19.0002 12.5119 18.1328 13.5781 18.1328C14.6443 18.1328 15.5117 19.0002 15.5117 20.0664C15.5117 21.1326 14.6443 22 13.5781 22Z" fill="#2184FA"/>
</svg>
