<svg width="23" height="27" viewBox="0 0 23 27" fill="none" xmlns="http://www.w3.org/2000/svg">
<path d="M21.8599 16.453C21.7067 16.3646 21.5474 16.2967 21.3851 16.2472V9.96392C21.5474 9.91439 21.7068 9.84697 21.8599 9.75861C22.9492 9.12967 23.3237 7.73176 22.6948 6.64247C22.066 5.55317 20.6682 5.1785 19.5787 5.8075C19.4566 5.87802 19.344 5.95862 19.2402 6.04698L13.7417 2.83C13.7672 2.69363 13.7812 2.55327 13.7812 2.4096C13.7812 1.15176 12.7578 0.128418 11.5 0.128418C10.2422 0.128418 9.21882 1.15176 9.21882 2.4096C9.21882 2.55327 9.23276 2.69363 9.25831 2.83L3.75974 6.04692C3.65602 5.95862 3.54343 5.87796 3.42131 5.8075C2.33202 5.1786 0.934165 5.55317 0.305166 6.64247C-0.323731 7.73176 0.0507887 9.12967 1.14013 9.75861C1.29322 9.84702 1.4526 9.91439 1.61487 9.96397V16.2472C1.45255 16.2968 1.29322 16.3646 1.14013 16.453C0.0508394 17.082 -0.323731 18.4799 0.305166 19.5692C0.931072 20.6534 2.32721 21.0358 3.42131 20.4041C3.54343 20.3336 3.65602 20.253 3.75974 20.1647L9.25831 23.3816C9.23281 23.518 9.21882 23.6584 9.21882 23.802C9.21882 25.0599 10.2422 26.0832 11.5 26.0832C12.7578 26.0832 13.7812 25.0599 13.7812 23.802C13.7812 23.6781 13.7709 23.5566 13.7518 23.4381L19.426 20.307C19.4754 20.3409 19.5259 20.3737 19.5787 20.4041C20.6749 21.0371 22.0699 20.6515 22.6948 19.5692C23.3237 18.4799 22.9492 17.082 21.8599 16.453ZM19.2372 16.6949L17.7697 15.8476C18.1383 15.0077 18.3436 14.0803 18.3436 13.1058C18.3436 12.1313 18.1383 11.204 17.7697 10.3641L19.237 9.51691C19.4259 9.67811 19.6383 9.80576 19.8643 9.8969V16.3154C19.6384 16.4065 19.4261 16.5338 19.2372 16.6949ZM11.5 18.4286C10.6841 18.4286 9.91057 18.2438 9.21882 17.9143V17.6682C9.21882 16.4103 10.2422 15.387 11.5 15.387C12.7578 15.387 13.7812 16.4103 13.7812 17.6682V17.9143C13.0894 18.2438 12.3159 18.4286 11.5 18.4286ZM15.2248 16.9041C14.8702 15.1726 13.3348 13.8662 11.5 13.8662C9.66522 13.8662 8.12983 15.1726 7.77518 16.9041C6.78971 15.9375 6.17724 14.5919 6.17724 13.1058C6.17724 10.1708 8.56503 7.78306 11.5 7.78306C14.435 7.78306 16.8228 10.1708 16.8228 13.1058C16.8228 14.5919 16.2103 15.9375 15.2248 16.9041ZM18.4768 8.1997L17.0073 9.04815C15.902 7.55195 14.2025 6.5204 12.2604 6.30475V4.56C12.5255 4.46596 12.7681 4.32422 12.978 4.14513L18.4787 7.36332C18.4273 7.63701 18.4252 7.92059 18.4768 8.1997ZM10.7396 6.30475C8.79741 6.52045 7.09802 7.55195 5.99272 9.04815L4.52318 8.1997C4.57478 7.92054 4.57275 7.63696 4.52125 7.36327L10.022 4.14508C10.232 4.32417 10.4745 4.46591 10.7396 4.55995V6.30475ZM3.76298 9.51686L5.23034 10.364C4.86165 11.204 4.65645 12.1313 4.65645 13.1058C4.65645 14.0803 4.86165 15.0077 5.23034 15.8476L3.76278 16.6948C3.57395 16.5337 3.36165 16.4064 3.13561 16.3153V9.89685C3.3618 9.80566 3.57405 9.67806 3.76298 9.51686ZM4.52318 18.0119L5.99272 17.1635C7.09802 18.6597 8.79746 19.6912 10.7396 19.9069V21.6516C10.4745 21.7457 10.232 21.8874 10.022 22.0665L4.52125 18.8483C4.57275 18.5746 4.57478 18.2911 4.52318 18.0119ZM12.2604 19.9069C14.2026 19.6912 15.902 18.6597 17.0073 17.1635L18.4768 18.0119C18.4115 18.3653 18.4321 18.7258 18.5303 19.0643L13.0214 22.1041C12.8018 21.9071 12.5439 21.7522 12.2604 21.6516V19.9069ZM20.3391 7.12451C20.7021 6.91484 21.1681 7.03975 21.3778 7.40286C21.5874 7.76597 21.4625 8.23194 21.0995 8.44161C20.7363 8.65123 20.2704 8.52637 20.0608 8.16325C19.8511 7.80014 19.976 7.33417 20.3391 7.12451ZM11.5 1.64921C11.9193 1.64921 12.2604 1.99032 12.2604 2.4096C12.2604 2.82888 11.9193 3.17 11.5 3.17C11.0807 3.17 10.7396 2.82888 10.7396 2.4096C10.7396 1.99032 11.0807 1.64921 11.5 1.64921ZM1.62222 7.40286C1.83082 7.04152 2.29608 6.91398 2.66092 7.12451C3.02398 7.33417 3.14889 7.80014 2.93922 8.16325C2.72956 8.52642 2.26374 8.65128 1.90052 8.44161C1.53746 8.23194 1.41255 7.76597 1.62222 7.40286ZM2.66092 19.0871C2.29776 19.2968 1.83189 19.1719 1.62222 18.8088C1.41255 18.4457 1.53746 17.9797 1.90052 17.77C2.26364 17.5604 2.72956 17.6853 2.93922 18.0484C3.14889 18.4115 3.02398 18.8775 2.66092 19.0871ZM11.5 24.5624C11.0807 24.5624 10.7396 24.2213 10.7396 23.802C10.7396 23.3828 11.0807 23.0416 11.5 23.0416C11.9193 23.0416 12.2604 23.3828 12.2604 23.802C12.2604 24.2213 11.9193 24.5624 11.5 24.5624ZM21.3778 18.8088C21.1681 19.1719 20.7022 19.2968 20.3391 19.0871C19.976 18.8775 19.8511 18.4115 20.0608 18.0484C20.2694 17.687 20.7346 17.5595 21.0995 17.77C21.4625 17.9797 21.5874 18.4457 21.3778 18.8088Z" fill="#44C283"/>
</svg>
