<svg width="23" height="20" viewBox="0 0 23 20" fill="none" xmlns="http://www.w3.org/2000/svg">
<path d="M14.375 4.3125C13.846 4.3125 13.4167 3.88317 13.4167 3.35417V1.91667H9.58335V3.35417C9.58335 3.88317 9.15402 4.3125 8.62502 4.3125C8.09602 4.3125 7.66669 3.88317 7.66669 3.35417V1.91667C7.66669 0.859625 8.52631 0 9.58335 0H13.4167C14.4737 0 15.3334 0.859625 15.3334 1.91667V3.35417C15.3334 3.88317 14.904 4.3125 14.375 4.3125Z" fill="#FF5621"/>
<path d="M12.1804 12.8225C12.0079 12.8896 11.7587 12.9375 11.5 12.9375C11.2413 12.9375 10.9921 12.8896 10.7621 12.8033L0 9.21916V16.5312C0 17.9879 1.17875 19.1667 2.63542 19.1667H20.3646C21.8212 19.1667 23 17.9879 23 16.5312V9.21916L12.1804 12.8225Z" fill="#FF5621"/>
<path d="M23 5.51042V7.705L11.73 11.4617C11.6533 11.4904 11.5767 11.5 11.5 11.5C11.4233 11.5 11.3467 11.4904 11.27 11.4617L0 7.705V5.51042C0 4.05375 1.17875 2.875 2.63542 2.875H20.3646C21.8212 2.875 23 4.05375 23 5.51042Z" fill="#FF5621"/>
</svg>
