<svg width="23" height="29" viewBox="0 0 23 29" fill="none" xmlns="http://www.w3.org/2000/svg">
<path d="M10.6722 28.8762C12.0858 28.8762 13.2423 27.7515 13.2423 26.3769H8.10214C8.10214 27.7515 9.24583 28.8762 10.6722 28.8762ZM18.3825 21.3782V15.1299C18.3825 11.2935 16.275 8.08184 12.5998 7.23207V6.3823C12.5998 5.34509 11.7388 4.50781 10.6722 4.50781C9.60564 4.50781 8.74466 5.34509 8.74466 6.3823V7.23207C5.05659 8.08184 2.96197 11.281 2.96197 15.1299V21.3782L1.30426 22.9903C0.494688 23.7776 1.06011 25.1272 2.20379 25.1272H19.1278C20.2715 25.1272 20.8498 23.7776 20.0402 22.9903L18.3825 21.3782Z" fill="#C3C5CF"/>
<circle cx="15.0673" cy="8.49015" r="6.79789" fill="#FF5621" stroke="white" stroke-width="2"/>
</svg>
