<svg width="23" height="23" viewBox="0 0 23 23" fill="none" xmlns="http://www.w3.org/2000/svg">
<path d="M21.4277 8.13086H20.5537C20.4719 7.91134 20.3817 7.69427 20.284 7.48072L20.9024 6.86234C21.5153 6.2494 21.5153 5.25182 20.9024 4.63889L18.3611 2.09764C17.7482 1.4847 16.7506 1.4847 16.1377 2.09764L15.5193 2.71602C15.3057 2.61828 15.0887 2.52808 14.8691 2.44631V1.12305C14.8691 0.503792 14.3653 0 13.7461 0H9.25391C8.63465 0 8.13086 0.503792 8.13086 1.12305V2.44631C7.91134 2.52808 7.69427 2.61828 7.48072 2.71602L6.86234 2.09764C6.2494 1.4847 5.25182 1.4847 4.63889 2.09764L2.09764 4.63889C1.4847 5.25182 1.4847 6.24923 2.09764 6.86234L2.71619 7.48072C2.61828 7.69427 2.52808 7.91134 2.44631 8.13086H1.57227C0.705238 8.13086 0 8.8361 0 9.70312V13.2969C0 14.1639 0.705238 14.8691 1.57227 14.8691H2.44631C2.52808 15.0887 2.61828 15.3057 2.71619 15.5193L2.09764 16.1377C1.4847 16.7508 1.4847 17.7482 2.09764 18.3611L4.63889 20.9024C5.25182 21.5153 6.2494 21.5153 6.86234 20.9024L7.48072 20.284C7.69427 20.3817 7.91134 20.4719 8.13086 20.5537V21.4277C8.13086 22.2948 8.8361 23 9.70312 23H13.2969C14.1639 23 14.8691 22.2948 14.8691 21.4277V20.5537C15.0887 20.4719 15.3057 20.3817 15.5193 20.284L16.1377 20.9024C16.7506 21.5153 17.7482 21.5153 18.3611 20.9024L20.9024 18.3611C21.5153 17.7482 21.5153 16.7506 20.9024 16.1377L20.284 15.5193C20.3817 15.3057 20.4719 15.0887 20.5537 14.8691H21.4277C22.2948 14.8691 23 14.1639 23 13.2969V9.70312C23 8.8361 22.2948 8.13086 21.4277 8.13086ZM11.5 18.4629C7.66058 18.4629 4.53711 15.3394 4.53711 11.5C4.53711 7.66058 7.66058 4.53711 11.5 4.53711C15.3394 4.53711 18.4629 7.66058 18.4629 11.5C18.4629 15.3394 15.3394 18.4629 11.5 18.4629Z" fill="#E9D500" fill-opacity="0.8"/>
<path d="M11.5 5.88477C8.40372 5.88477 5.88477 8.40372 5.88477 11.5C5.88477 14.5963 8.40372 17.1152 11.5 17.1152C14.5963 17.1152 17.1152 14.5963 17.1152 11.5C17.1152 8.40372 14.5963 5.88477 11.5 5.88477ZM11.5 10.8262C12.6146 10.8262 13.5215 11.733 13.5215 12.8477C13.5215 13.7261 12.9582 14.475 12.1738 14.7533V15.0938C12.1738 15.4659 11.8722 15.7676 11.5 15.7676C11.1278 15.7676 10.8262 15.4659 10.8262 15.0938V14.8691H10.1523C9.78016 14.8691 9.47852 14.5675 9.47852 14.1953C9.47852 13.8231 9.78016 13.5215 10.1523 13.5215H11.5C11.8715 13.5215 12.1738 13.2191 12.1738 12.8477C12.1738 12.4762 11.8715 12.1738 11.5 12.1738C10.3854 12.1738 9.47852 11.267 9.47852 10.1523C9.47852 9.27391 10.0418 8.52498 10.8262 8.24667V7.90625C10.8262 7.53407 11.1278 7.23242 11.5 7.23242C11.8722 7.23242 12.1738 7.53407 12.1738 7.90625V8.13086H12.8477C13.2198 8.13086 13.5215 8.4325 13.5215 8.80469C13.5215 9.17687 13.2198 9.47852 12.8477 9.47852H11.5C11.1285 9.47852 10.8262 9.78086 10.8262 10.1523C10.8262 10.5238 11.1285 10.8262 11.5 10.8262Z" fill="#E9D500"/>
</svg>
