<svg width="15" height="15" viewBox="0 0 15 15" fill="none" xmlns="http://www.w3.org/2000/svg">
<path d="M13.1188 4.23657H1.3148C0.58982 4.23657 0 4.82639 0 5.55137V10.8106C0 11.5356 0.58982 12.1254 1.3148 12.1254H13.1188C13.8438 12.1254 14.4336 11.5356 14.4336 10.8106V5.55137C14.4336 4.82639 13.8438 4.23657 13.1188 4.23657ZM3.46935 8.86286C3.3573 8.86286 3.16587 8.86365 2.98667 8.86455V9.8754C2.98667 10.1174 2.79045 10.3137 2.54841 10.3137C2.30637 10.3137 2.11014 10.1174 2.11014 9.8754L2.10368 6.54618C2.1033 6.42972 2.14932 6.31787 2.23154 6.23536C2.31376 6.15285 2.42549 6.10651 2.54195 6.10651H3.46935C4.23942 6.10651 4.86593 6.72476 4.86593 7.48469C4.86593 8.24461 4.23942 8.86286 3.46935 8.86286ZM7.23167 10.208C6.97064 10.2125 6.31771 10.215 6.29004 10.2151C6.28948 10.2151 6.28893 10.2151 6.28837 10.2151C6.17273 10.2151 6.06173 10.1695 5.97963 10.0879C5.89712 10.006 5.85054 9.89472 5.85011 9.77846C5.85008 9.76677 5.84356 6.54563 5.84356 6.54563C5.84336 6.42925 5.8894 6.31755 5.97162 6.23519C6.05384 6.15282 6.16545 6.10651 6.28183 6.10651H7.19722C8.24006 6.10651 8.94071 6.93209 8.94071 8.16084C8.94071 9.32973 8.22195 10.1907 7.23167 10.208ZM11.7228 7.6945C11.9648 7.6945 12.161 7.89073 12.161 8.13277C12.161 8.37481 11.9648 8.57103 11.7228 8.57103H10.9275V9.81717C10.9275 10.0592 10.7312 10.2554 10.4892 10.2554C10.2472 10.2554 10.0509 10.0592 10.0509 9.81717V6.51094C10.0509 6.2689 10.2472 6.07268 10.4892 6.07268H11.8292C12.0712 6.07268 12.2675 6.2689 12.2675 6.51094C12.2675 6.75298 12.0712 6.94921 11.8292 6.94921H10.9275V7.6945H11.7228Z" fill="#FF5621"/>
<path d="M7.19722 6.98303H6.72089C6.72156 7.37864 6.72395 8.95564 6.72518 9.33632C6.90756 9.33515 7.10285 9.33355 7.21636 9.33156C7.80203 9.32133 8.0642 8.73619 8.0642 8.16083C8.06417 7.88452 8.00168 6.98303 7.19722 6.98303Z" fill="#FF5621"/>
<path d="M3.46933 6.98303H2.98151C2.98203 7.17806 2.98253 7.38554 2.98253 7.48467C2.98253 7.60052 2.98335 7.80145 2.98428 7.98804C3.16415 7.98713 3.35628 7.98631 3.46936 7.98631C3.75125 7.98631 3.9894 7.7566 3.9894 7.48467C3.9894 7.21274 3.75122 6.98303 3.46933 6.98303Z" fill="#FF5621"/>
<path d="M12.6646 3.36005C12.563 3.0816 12.4052 2.82425 12.1963 2.60389L10.3759 0.683667C9.96397 0.249199 9.38435 0 8.78562 0H2.95097C2.22599 0 1.63617 0.58982 1.63617 1.3148V3.36005H12.6646Z" fill="#FF5621"/>
<path d="M1.63617 13.0019V13.6447C1.63617 14.3697 2.22599 14.9595 2.95097 14.9595H11.4826C12.2076 14.9595 12.7974 14.3697 12.7974 13.6447V13.0019H1.63617Z" fill="#FF5621"/>
</svg>
