<svg width="15" height="16" viewBox="0 0 15 16" fill="none" xmlns="http://www.w3.org/2000/svg">
<path d="M12.3875 3.01764V2.31314C12.3875 1.09919 11.3999 0.111572 10.1859 0.111572H4.78476C3.57081 0.111572 2.58319 1.09919 2.58319 2.31314V3.01764H12.3875Z" fill="#2184FA"/>
<path d="M3.46381 9.47559V13.0568V13.82V14.2603C3.46381 14.7467 3.85806 15.1409 4.34443 15.1409H10.6262C11.1126 15.1409 11.5069 14.7467 11.5069 14.2603V13.82V13.0568V9.47559H3.46381ZM8.6595 13.2329H6.31116C6.06799 13.2329 5.87085 13.0358 5.87085 12.7926C5.87085 12.5494 6.06799 12.3523 6.31116 12.3523H8.6595C8.90267 12.3523 9.09981 12.5494 9.09981 12.7926C9.09981 13.0358 8.90267 13.2329 8.6595 13.2329ZM8.6595 11.3543H6.31116C6.06799 11.3543 5.87085 11.1571 5.87085 10.9139C5.87085 10.6708 6.06799 10.4736 6.31116 10.4736H8.6595C8.90267 10.4736 9.09981 10.6708 9.09981 10.9139C9.09981 11.1571 8.90267 11.3543 8.6595 11.3543Z" fill="#2184FA"/>
<path d="M12.7984 3.89825H2.20157C0.987622 3.89825 0 4.88588 0 6.09982V9.62232C0 10.8363 0.987622 11.8239 2.20157 11.8239H2.58317V9.47555H2.31898C2.07581 9.47555 1.87867 9.27841 1.87867 9.03524C1.87867 8.79207 2.07581 8.59493 2.31898 8.59493H3.02348H11.9472H12.6517C12.8948 8.59493 13.092 8.79207 13.092 9.03524C13.092 9.27841 12.8948 9.47555 12.6517 9.47555H12.3875V11.8239H12.7984C14.0124 11.8239 15 10.8363 15 9.62232V6.09982C15 4.88588 14.0124 3.89825 12.7984 3.89825ZM3.72798 6.65755H2.31898C2.07581 6.65755 1.87867 6.46041 1.87867 6.21724C1.87867 5.97407 2.07581 5.77692 2.31898 5.77692H3.72798C3.97115 5.77692 4.1683 5.97407 4.1683 6.21724C4.1683 6.46041 3.97115 6.65755 3.72798 6.65755Z" fill="#2184FA"/>
</svg>
