<svg width="21" height="28" viewBox="0 0 21 28" fill="none" xmlns="http://www.w3.org/2000/svg">
<path d="M1.78576 10.0126C1.52022 9.68557 1.2098 9.44095 1.08762 9.12503C0.839537 8.48213 1.39056 7.90069 2.20588 7.89946C5.13306 7.89208 8.06023 7.89454 10.9874 7.89454C13.1678 7.89454 15.347 7.90438 17.5274 7.89208C18.1433 7.8884 18.7292 7.91913 18.9399 8.60997C19.1406 9.26763 18.7205 9.63763 18.1707 9.91176C19.5283 11.6487 19.9821 13.6315 19.9871 15.7483C19.9908 17.6106 20.0232 19.4729 19.9746 21.3341C19.9572 22.02 19.8001 22.7157 19.6106 23.3795C19.1319 25.0513 18.0473 26.1872 16.3543 26.7256C13.6416 27.5898 10.8478 27.709 8.04153 27.4963C6.7263 27.3968 5.41106 27.1497 4.1245 26.851C1.76332 26.304 0.546571 24.6924 0.171324 22.4047C0.0653575 21.7606 -0.00694921 21.1017 0.000530788 20.4514C0.0217241 18.3863 0.0379308 16.3174 0.151377 14.256C0.239891 12.6727 0.819591 11.2295 1.78576 10.0126ZM10.1122 15.6032C10.5249 15.7655 11.0248 15.945 11.511 16.1564C12.0483 16.39 12.5969 16.2535 12.8674 15.7913C13.1279 15.3439 13.0195 14.8153 12.5457 14.4981C12.2403 14.2941 11.8713 14.1847 11.5584 13.9904C11.3215 13.8442 11.1395 13.6155 10.9126 13.4508C10.6134 13.2332 10.298 12.8952 9.98134 12.8853C9.6971 12.8767 9.39042 13.2295 9.11117 13.4447C8.90173 13.6057 8.74714 13.8577 8.519 13.9695C7.55034 14.4453 7.04046 15.1939 7.02924 16.2597C7.01802 17.323 7.60894 17.9831 8.56388 18.3408C9.14234 18.5571 9.76567 18.6604 10.3454 18.8755C10.591 18.9665 10.7755 19.2148 10.9887 19.3918C10.7194 19.5393 10.4364 19.8307 10.1846 19.8061C9.6248 19.7495 9.06629 19.575 8.53521 19.3746C7.95426 19.157 7.41196 19.2787 7.14268 19.7778C6.88836 20.2498 7.04295 20.7809 7.56406 21.0907C7.86326 21.2689 8.21357 21.3648 8.51152 21.5443C8.72969 21.6758 8.9678 21.8467 9.08374 22.0605C9.42907 22.6948 10.3329 22.9542 10.6558 22.3789C11.0036 21.7569 11.6008 21.6008 12.0608 21.2099C12.3924 20.9284 12.6978 20.5424 12.8474 20.1417C13.3723 18.7292 12.7265 17.5946 11.147 17.0661C10.5598 16.8694 9.95018 16.7329 9.3605 16.5412C9.2296 16.4981 9.03886 16.3248 9.05133 16.2326C9.07003 16.0777 9.19844 15.8847 9.33682 15.8073C9.52382 15.7003 9.76692 15.6868 10.1122 15.6032Z" fill="#FF5621"/>
<path d="M10.0025 5.93266C7.65628 5.93266 5.3088 5.92282 2.96258 5.94249C2.57237 5.94618 2.37166 5.82817 2.21084 5.48029C1.79944 4.58662 1.33817 3.7163 0.914304 2.82754C0.504151 1.96214 0.737277 1.21598 1.63363 0.855809C4.22171 -0.181687 6.81976 -0.450896 9.34551 1.04389C10.8889 1.95723 12.4946 2.52269 14.3172 2.1072C15.2048 1.9056 16.0975 1.70892 16.9676 1.44462C17.6446 1.23934 18.243 1.2295 18.7242 1.79619C19.1867 2.34199 19.0919 2.92465 18.779 3.5147C18.3564 4.30757 18.1445 5.40776 17.4837 5.82325C16.8467 6.22522 15.7546 5.93143 14.8633 5.93266C13.2426 5.93634 11.6232 5.93266 10.0025 5.93266Z" fill="#FF5621"/>
</svg>
