<svg width="21" height="21" viewBox="0 0 21 21" fill="none" xmlns="http://www.w3.org/2000/svg">
<path fill-rule="evenodd" clip-rule="evenodd" d="M19.2523 12.146C19.6249 12.3439 19.9123 12.6564 20.1146 12.9689C20.5084 13.6147 20.4765 14.4064 20.0933 15.1043L19.3481 16.3543C18.9542 17.021 18.2197 17.4377 17.4639 17.4377C17.0913 17.4377 16.6761 17.3335 16.3354 17.1252C16.0587 16.9481 15.7393 16.8856 15.3987 16.8856C14.3448 16.8856 13.4612 17.7502 13.4293 18.7814C13.4293 19.9793 12.4499 20.9168 11.2257 20.9168H9.77789C8.54302 20.9168 7.56364 19.9793 7.56364 18.7814C7.54235 17.7502 6.65879 16.8856 5.60489 16.8856C5.25359 16.8856 4.93423 16.9481 4.6681 17.1252C4.32745 17.3335 3.90163 17.4377 3.53969 17.4377C2.77322 17.4377 2.03869 17.021 1.64481 16.3543L0.910275 15.1043C0.516395 14.4272 0.495104 13.6147 0.888984 12.9689C1.05931 12.6564 1.37867 12.3439 1.74062 12.146C2.03869 12.0002 2.2303 11.7606 2.41127 11.4793C2.94354 10.5835 2.62418 9.40641 1.71932 8.87516C0.665431 8.28141 0.324778 6.9585 0.931565 5.92725L1.64481 4.69808C2.26224 3.66683 3.58227 3.30225 4.64681 3.90641C5.57296 4.40641 6.77589 4.07308 7.3188 3.18766C7.48913 2.896 7.58494 2.5835 7.56364 2.271C7.54235 1.86475 7.65945 1.47933 7.86172 1.16683C8.25559 0.520996 8.96884 0.104329 9.74595 0.0834961H11.247C12.0347 0.0834961 12.7479 0.520996 13.1418 1.16683C13.3334 1.47933 13.4612 1.86475 13.4293 2.271C13.408 2.5835 13.5038 2.896 13.6741 3.18766C14.217 4.07308 15.4199 4.40641 16.3567 3.90641C17.4106 3.30225 18.7413 3.66683 19.3481 4.69808L20.0613 5.92725C20.6788 6.9585 20.3381 8.28141 19.2736 8.87516C18.3687 9.40641 18.0494 10.5835 18.5923 11.4793C18.7626 11.7606 18.9542 12.0002 19.2523 12.146ZM7.48907 10.5105C7.48907 12.1459 8.84103 13.448 10.5124 13.448C12.1837 13.448 13.5037 12.1459 13.5037 10.5105C13.5037 8.87509 12.1837 7.56259 10.5124 7.56259C8.84103 7.56259 7.48907 8.87509 7.48907 10.5105Z" fill="#868C9F"/>
</svg>
