<svg width="27" height="23" viewBox="0 0 27 23" fill="none" xmlns="http://www.w3.org/2000/svg">
<path d="M23.1025 12.3652H21.0144C21.2272 12.9479 21.3435 13.5768 21.3435 14.2322V22.1239C21.3435 22.3972 21.296 22.6595 21.2094 22.9034H24.6615C25.951 22.9034 27 21.8543 27 20.5649V16.2627C27.0001 14.1136 25.2516 12.3652 23.1025 12.3652Z" fill="#44C283"/>
<path d="M5.65656 14.2322C5.65656 13.5768 5.77284 12.948 5.98568 12.3652H3.89761C1.74846 12.3652 0 14.1137 0 16.2628V20.565C0 21.8544 1.04905 22.9035 2.33856 22.9035H5.79067C5.70413 22.6595 5.65656 22.3972 5.65656 22.124V14.2322Z" fill="#44C283"/>
<path d="M15.8869 10.3346H11.1132C8.9641 10.3346 7.21564 12.0831 7.21564 14.2322V22.124C7.21564 22.5544 7.56463 22.9035 7.99516 22.9035H19.005C19.4355 22.9035 19.7845 22.5545 19.7845 22.124V14.2322C19.7845 12.0831 18.036 10.3346 15.8869 10.3346Z" fill="#44C283"/>
<path d="M13.5 0C10.9154 0 8.81268 2.10273 8.81268 4.68741C8.81268 6.44057 9.78031 7.97171 11.2093 8.7756C11.8871 9.15687 12.6685 9.37477 13.5 9.37477C14.3316 9.37477 15.113 9.15687 15.7908 8.7756C17.2198 7.97171 18.1874 6.44051 18.1874 4.68741C18.1874 2.10279 16.0847 0 13.5 0Z" fill="#44C283"/>
<path d="M5.26913 4.369C3.33615 4.369 1.76361 5.94154 1.76361 7.87452C1.76361 9.80751 3.33615 11.38 5.26913 11.38C5.75946 11.38 6.22637 11.2785 6.65051 11.0959C7.38384 10.7802 7.98849 10.2213 8.36265 9.52126C8.62526 9.02994 8.77466 8.46942 8.77466 7.87452C8.77466 5.94159 7.20212 4.369 5.26913 4.369Z" fill="#44C283"/>
<path d="M21.7309 4.369C19.7979 4.369 18.2254 5.94154 18.2254 7.87452C18.2254 8.46947 18.3748 9.02999 18.6374 9.52126C19.0116 10.2214 19.6162 10.7802 20.3495 11.0959C20.7737 11.2785 21.2406 11.38 21.7309 11.38C23.6639 11.38 25.2365 9.80751 25.2365 7.87452C25.2365 5.94154 23.6639 4.369 21.7309 4.369Z" fill="#44C283"/>
</svg>
