<svg width="20" height="28" viewBox="0 0 20 28" fill="none" xmlns="http://www.w3.org/2000/svg">
<path d="M9.83165 22.9101C7.39699 20.6996 4.75242 18.5852 2.45988 16.1407C-0.207638 13.2961 -0.623071 9.79554 0.814548 6.2086C2.21609 2.71239 4.87924 0.59259 8.63673 0.100629C12.6107 -0.418663 15.8347 1.08127 18.043 4.38288C20.247 7.67573 20.399 11.1993 18.4574 14.713C17.5992 16.2654 16.2971 17.4494 14.9568 18.5831C13.2633 20.0141 11.5688 21.4441 9.83165 22.9101ZM17.2843 9.86988C17.2777 5.81284 13.9729 2.50358 9.92239 2.49921C5.87519 2.49484 2.56812 5.79098 2.54406 9.85457C2.52001 13.9182 5.86097 17.2635 9.93332 17.2526C13.9838 17.2416 17.2909 13.9215 17.2843 9.86988Z" fill="#E9D500"/>
<path d="M9.92348 25.1819C11.5929 23.6907 13.2273 22.2421 14.8431 20.7739C15.1109 20.5301 15.3263 20.4864 15.6619 20.6143C16.6229 20.9816 17.539 21.4102 18.2475 22.1853C19.121 23.1408 19.1625 24.3554 18.3382 25.3557C17.6429 26.1986 16.706 26.6906 15.6936 27.0218C11.5513 28.3731 7.42541 28.3818 3.37493 26.6873C2.67853 26.3965 2.02149 25.8827 1.5011 25.3262C0.617761 24.3805 0.706314 23.1266 1.58638 22.1733C2.35165 21.3446 3.33885 20.8854 4.38946 20.5585C4.54033 20.5115 4.80052 20.6373 4.94046 20.7608C6.45788 22.0957 7.9611 23.4469 9.46869 24.7927C9.60206 24.9108 9.742 25.0256 9.92348 25.1819Z" fill="#E9D500"/>
<path d="M6.39995 14.3303C4.51956 12.9878 3.71384 10.3651 4.45725 8.09554C5.23127 5.72866 7.47679 4.11612 9.97049 4.13361C12.4522 4.1511 14.6529 5.80081 15.4017 8.20486C16.0938 10.4274 15.2563 13.0567 13.4973 14.2746C13.0567 13.8591 12.6643 13.3912 12.1778 13.0611C11.6978 12.7353 11.1228 12.5516 10.6035 12.3111C12.6118 11.4387 13.4743 10.1257 13.1278 8.44319C12.8097 6.89624 11.5054 5.79753 9.96502 5.77785C8.41261 5.75817 7.06355 6.82518 6.72245 8.3437C6.33107 10.082 7.14445 11.3654 9.32657 12.3647C8.03544 12.6238 7.07229 13.2786 6.39995 14.3303Z" fill="#E9D500"/>
<path d="M9.93443 7.41882C10.8287 7.43085 11.5535 8.1677 11.5502 9.06197C11.547 9.97046 10.773 10.7204 9.86556 10.692C8.97237 10.6647 8.25739 9.9147 8.27707 9.02262C8.29565 8.1349 9.04672 7.40789 9.93443 7.41882Z" fill="#E9D500"/>
<path d="M7.81897 15.1962C8.3153 14.4222 8.96797 14.0144 9.8207 13.9816C10.7478 13.9455 11.4562 14.3631 12.0105 15.1874C10.5991 15.7516 9.24347 15.7516 7.81897 15.1962Z" fill="#E9D500"/>
</svg>
