<svg width="28" height="26" viewBox="0 0 28 26" fill="none" xmlns="http://www.w3.org/2000/svg">
<path d="M27.7732 24.9276C27.7663 24.875 27.7522 24.8224 27.7347 24.7734C27.6085 24.2932 27.3246 23.4241 27.195 23.0316C27.181 22.9651 27.16 22.8985 27.1284 22.8354V22.8318C27.0478 22.6636 26.9216 22.5199 26.7604 22.4253C26.75 22.4183 26.7324 22.4078 26.7044 22.3938C26.6938 22.3868 26.6833 22.3832 26.6728 22.3798C26.3609 22.2326 25.3972 21.8471 25.3972 21.8471C24.9171 21.6403 24.4195 21.4616 23.9113 21.2793C23.8202 21.6579 22.9581 24.1636 22.8214 24.5141L22.7127 22.1835C22.7478 22.1275 22.7758 22.0644 22.8038 22.0048L23.1648 21.2934C22.9125 21.5036 22.5305 21.6368 22.1065 21.6368C21.6929 21.6368 21.3215 21.5107 21.0691 21.3074L21.4195 22.0013C21.4476 22.0609 21.4721 22.124 21.5107 22.1801L21.402 24.5106C21.2654 24.1636 20.4032 21.6544 20.3121 21.2759C19.8039 21.4546 19.3063 21.6334 18.8262 21.8436C18.8262 21.8436 17.866 22.2291 17.5506 22.3763C17.5401 22.3798 17.5295 22.3868 17.5191 22.3903C17.491 22.4043 17.4735 22.4148 17.463 22.4219C17.3017 22.5164 17.1756 22.6601 17.095 22.8284C17.095 22.8284 17.095 22.8284 17.095 22.8319C17.067 22.895 17.046 22.958 17.0284 23.0281C16.8987 23.4171 16.6149 24.2898 16.4887 24.7699C16.4712 24.8189 16.4607 24.8715 16.4502 24.924C16.4431 24.9696 16.4396 25.0187 16.4396 25.0678C16.4396 25.5795 16.8567 25.9965 17.3683 25.9965H18.255C19.5236 25.9965 20.7923 25.9965 22.0609 25.9965C22.0784 25.9965 22.0924 25.9965 22.11 25.9965C22.1275 25.9965 22.1415 25.9965 22.159 25.9965C23.4276 25.9965 24.6962 25.9965 25.9649 25.9965H26.8515C27.3633 25.9965 27.7802 25.5795 27.7802 25.0678C27.7838 25.0222 27.7802 24.9731 27.7732 24.9276Z" fill="#FF5621"/>
<path d="M24.5351 16.9688C24.5351 16.8041 24.5666 16.2118 24.5666 16.0751C24.5666 14.747 23.4908 13.671 22.1625 13.671H22.159H22.1554C22.1415 13.671 22.124 13.671 22.1099 13.671C22.0959 13.671 22.0784 13.671 22.0643 13.671H22.0608H22.0573C20.7291 13.671 19.6532 14.747 19.6532 16.0751C19.6532 16.2118 19.6847 16.8076 19.6847 16.9688C19.6251 16.9724 19.0889 16.8426 19.1451 17.4875C19.2677 18.8543 19.7898 18.5879 19.8039 18.5879C20.0597 19.4115 20.4593 19.9372 20.8483 20.2736C21.458 20.7958 22.0468 20.8518 22.0573 20.8518C22.0748 20.8518 22.0889 20.8518 22.1064 20.8518C22.1239 20.8518 22.1379 20.8518 22.1554 20.8518C22.1659 20.8518 22.7511 20.7958 23.3575 20.2771C23.7499 19.9442 24.1495 19.415 24.4088 18.588C24.4228 18.588 24.945 18.8543 25.0677 17.4875C25.1308 16.8426 24.5947 16.9723 24.5351 16.9688Z" fill="#FF5621"/>
<path d="M11.3336 24.9276C11.3266 24.875 11.3126 24.8225 11.2951 24.7734C11.1689 24.2933 10.885 23.4242 10.7554 23.0316C10.7413 22.9651 10.7203 22.8985 10.6888 22.8354V22.8319C10.6082 22.6636 10.482 22.52 10.3208 22.4253C10.3103 22.4183 10.2928 22.4078 10.2647 22.3938C10.2542 22.3868 10.2437 22.3833 10.2332 22.3798C9.92128 22.2326 8.95754 21.8471 8.95754 21.8471C8.47742 21.6404 7.97978 21.4616 7.47163 21.2794C7.38051 21.6579 6.5184 24.1636 6.38172 24.5141L6.27308 22.1836C6.30813 22.1275 6.33616 22.0644 6.3642 22.0048L6.72516 21.2934C6.47284 21.5037 6.09085 21.6369 5.6668 21.6369C5.25327 21.6369 4.88179 21.5107 4.62946 21.3074L4.97992 22.0014C5.00795 22.0609 5.03248 22.124 5.07103 22.1801L4.96239 24.5106C4.82572 24.1637 3.96361 21.6544 3.87249 21.2759C3.36433 21.4546 2.86669 21.6334 2.38657 21.8437C2.38657 21.8437 1.42634 22.2292 1.11093 22.3763C1.10042 22.3798 1.0899 22.3869 1.07939 22.3903C1.05135 22.4044 1.03383 22.4148 1.02332 22.4219C0.862111 22.5165 0.735948 22.6601 0.655344 22.8284C0.655344 22.8284 0.655344 22.8284 0.655344 22.8319C0.627308 22.895 0.606281 22.9581 0.588759 23.0282C0.459091 23.4242 0.175226 24.2933 0.0490632 24.7734C0.0315406 24.8225 0.0210271 24.875 0.0105135 24.9276C0.00350452 24.9731 0 25.0222 0 25.0713C0 25.583 0.417037 26 0.928697 26H1.81534C3.08397 26 4.35261 26 5.62124 26C5.63876 26 5.65278 26 5.67031 26C5.68783 26 5.70185 26 5.71937 26C6.988 26 8.25664 26 9.52527 26H10.4119C10.9236 26 11.3406 25.583 11.3406 25.0713C11.3441 25.0222 11.3406 24.9731 11.3336 24.9276Z" fill="#FF5621"/>
<path d="M8.09893 16.9688C8.09893 16.8041 8.13047 16.2118 8.13047 16.0752C8.13047 14.747 7.05458 13.6711 5.72637 13.6711H5.72287H5.71936C5.70534 13.6711 5.68782 13.6711 5.6738 13.6711C5.65978 13.6711 5.64226 13.6711 5.62824 13.6711H5.62474H5.62123C4.29302 13.6711 3.21714 14.747 3.21714 16.0752C3.21714 16.2118 3.24868 16.8076 3.24868 16.9688C3.1891 16.9724 2.65291 16.8427 2.70898 17.4875C2.83164 18.8543 3.35381 18.5879 3.36783 18.5879C3.62366 19.4115 4.02318 19.9372 4.41218 20.2736C5.02196 20.7958 5.61072 20.8519 5.62123 20.8519C5.63876 20.8519 5.65278 20.8519 5.6703 20.8519C5.68782 20.8519 5.70184 20.8519 5.71936 20.8519C5.72987 20.8519 6.31513 20.7958 6.92141 20.2771C7.31392 19.9442 7.71343 19.415 7.97276 18.588C7.98678 18.588 8.50896 18.8543 8.63161 17.4876C8.69469 16.8427 8.155 16.9724 8.09893 16.9688Z" fill="#FF5621"/>
<path d="M19.5516 11.253C19.5446 11.2004 19.5306 11.1479 19.5131 11.0988C19.3869 10.6187 19.103 9.74956 18.9734 9.35705C18.9594 9.29047 18.9383 9.22388 18.9068 9.1608V9.1573C18.8262 8.98908 18.7 8.84539 18.5388 8.75077C18.5283 8.74376 18.5108 8.73325 18.4828 8.71923C18.4722 8.71222 18.4617 8.70872 18.4512 8.70521C18.1393 8.55802 17.1756 8.17253 17.1756 8.17253C16.6955 7.96576 16.1978 7.78703 15.6897 7.6048C15.5985 7.98328 14.7365 10.489 14.5998 10.8395L14.4911 8.50896C14.5262 8.45289 14.5542 8.38981 14.5822 8.33023L14.9432 7.61881C14.6909 7.82909 14.3089 7.96226 13.8848 7.96226C13.4713 7.96226 13.0999 7.83609 12.8475 7.63283L13.1979 8.32673C13.226 8.3863 13.2505 8.44938 13.2891 8.50546L13.1804 10.836C13.0438 10.489 12.1816 7.97978 12.0905 7.60129C11.5823 7.78002 11.0847 7.95875 10.6046 8.16902C10.6046 8.16902 9.64437 8.55452 9.32896 8.70171C9.31845 8.70521 9.30794 8.71222 9.29742 8.71573C9.26939 8.72975 9.25187 8.74026 9.24135 8.74727C9.08014 8.84189 8.95398 8.98557 8.87338 9.15379C8.87338 9.15379 8.87338 9.15379 8.87338 9.1573C8.84534 9.22038 8.82431 9.28346 8.80679 9.35355C8.67712 9.74255 8.39326 10.6152 8.2671 11.0953C8.24957 11.1444 8.23906 11.1969 8.22855 11.2495C8.22154 11.2951 8.21803 11.3441 8.21803 11.3932C8.21803 11.9048 8.63507 12.3219 9.14673 12.3219H10.0334C11.302 12.3219 12.5706 12.3219 13.8393 12.3219C13.8568 12.3219 13.8708 12.3219 13.8883 12.3219C13.9059 12.3219 13.9198 12.3219 13.9374 12.3219C15.206 12.3219 16.4746 12.3219 17.7433 12.3219H18.6299C19.1416 12.3219 19.5586 11.9048 19.5586 11.3932C19.5621 11.3476 19.5586 11.2985 19.5516 11.253Z" fill="#FF5621"/>
<path d="M16.317 3.29775C16.317 3.13304 16.3485 2.54077 16.3485 2.4041C16.3485 1.07589 15.2726 0 13.9444 0H13.9409H13.9373C13.9234 0 13.9058 0 13.8918 0C13.8778 0 13.8602 0 13.8462 0H13.8428H13.8393C12.511 0 11.4352 1.07589 11.4352 2.4041C11.4352 2.54077 11.4667 3.13654 11.4667 3.29775C11.4071 3.30125 10.8709 3.17159 10.927 3.81642C11.0497 5.18318 11.5718 4.91684 11.5859 4.91684C11.8417 5.7404 12.2412 6.26607 12.6302 6.60251C13.24 7.12468 13.8287 7.18075 13.8393 7.18075C13.8568 7.18075 13.8708 7.18075 13.8883 7.18075C13.9058 7.18075 13.9198 7.18075 13.9373 7.18075C13.9479 7.18075 14.5331 7.12468 15.1394 6.60601C15.5319 6.27308 15.9315 5.7439 16.1908 4.91684C16.2048 4.91684 16.727 5.18318 16.8497 3.81642C16.9127 3.17155 16.3766 3.29775 16.317 3.29775Z" fill="#FF5621"/>
<path d="M14.7084 17.6032V13.622H13.1314V17.6032L10.482 20.2526L11.5964 21.367L13.9199 19.047L16.1873 21.3144L17.3017 20.1965L14.7084 17.6032Z" fill="#FF5621"/>
</svg>
