<svg width="28" height="28" viewBox="0 0 28 28" fill="none" xmlns="http://www.w3.org/2000/svg">
<path d="M16.702 13.8534C20.5214 13.8534 23.6282 10.7461 23.6282 6.92672C23.6282 3.10734 20.5214 0 16.702 0C12.8827 0 9.77533 3.10734 9.77533 6.92672C9.77533 10.7461 12.8827 13.8534 16.702 13.8534ZM15.8817 2.85523V2.66711C15.8817 2.21375 16.2487 1.8468 16.702 1.8468C17.1549 1.8468 17.5224 2.21375 17.5224 2.66711V2.85633C18.4985 3.06578 19.233 3.93531 19.233 4.97328C19.233 5.42609 18.8655 5.79359 18.4127 5.79359C17.9593 5.79359 17.5924 5.42609 17.5924 4.97328C17.5924 4.68398 17.3567 4.44828 17.0674 4.44828H16.3318C16.0425 4.44828 15.8068 4.68398 15.8068 4.97328C15.8068 5.13898 15.8861 5.29648 16.0195 5.39492L16.702 5.90023L18.3602 7.12742C18.9049 7.53047 19.233 8.17523 19.2374 8.85336V8.86102C19.2412 9.43961 19.0197 9.98539 18.6128 10.3972C18.311 10.7029 17.9336 10.908 17.5224 10.9944V11.1863C17.5224 11.6397 17.1549 12.0066 16.702 12.0066C16.2487 12.0066 15.8817 11.6397 15.8817 11.1863V10.9971C15.4814 10.9118 15.1134 10.7149 14.8159 10.4207C14.4041 10.0144 14.1755 9.47187 14.1722 8.89328C14.1695 8.44047 14.5342 8.07078 14.987 8.06805H14.9925C15.4431 8.06805 15.8101 8.43227 15.8128 8.88344C15.8139 9.16655 16.0417 9.40516 16.3406 9.40516C16.7938 9.40242 16.625 9.40341 17.075 9.40078C17.3662 9.39848 17.599 9.16218 17.5967 8.87195V8.8643C17.5956 8.70023 17.5163 8.54383 17.384 8.44594L16.702 7.94117L15.0434 6.71398C14.4943 6.30711 14.1662 5.65633 14.1662 4.97328C14.1662 3.93312 14.9028 3.06305 15.8817 2.85523Z" fill="#D9EAFF"/>
<path d="M5.47902 17.7949C5.26875 17.4303 4.80166 17.3035 4.43487 17.5151L0.576232 19.7425C0.210864 19.954 0.0855205 20.4213 0.29645 20.7871L4.24019 27.6177C4.45128 27.983 4.91831 28.1084 5.28433 27.8975L9.14298 25.6695C9.50889 25.4585 9.63374 24.9912 9.42276 24.6254L5.47902 17.7949Z" fill="#D9EAFF"/>
<path d="M27.5886 16.4314C27.2173 15.9157 26.4987 15.7992 25.9836 16.1705C24.4206 17.2965 21.4193 19.4589 21.1809 19.6312C21.071 19.7247 20.9556 19.8094 20.8353 19.8844C20.3633 20.1813 19.8159 20.3399 19.2444 20.3399H15.3151C14.8623 20.3399 14.4948 19.973 14.4948 19.5196C14.4948 19.0657 14.8629 18.6993 15.3151 18.6993H19.5173C20.1347 18.6993 20.6291 18.1852 20.6034 17.5667C20.5793 16.9799 20.0784 16.5249 19.4911 16.5249H16.2924C16.0758 16.2958 15.8385 16.0858 15.5842 15.8982C14.7097 15.2534 13.6291 14.8723 12.4593 14.8723C10.3796 14.8723 8.3102 16.1826 7.45215 17.9315L10.8078 23.7431H17.1023C18.3382 23.7431 19.5556 23.427 20.6269 22.8107C20.9982 22.5974 21.3958 22.3409 21.8268 22.0314C23.6325 20.7342 27.3245 18.0392 27.3272 18.0376C27.8435 17.6668 27.9605 16.9471 27.5886 16.4314Z" fill="#D9EAFF"/>
</svg>
