<svg width="14" height="18" viewBox="0 0 14 18" fill="none" xmlns="http://www.w3.org/2000/svg">
<path d="M9.6532 0H2.74652C1.73752 0 0.916268 0.860204 0.916268 1.91578V8.99998H0.737473C0.330235 8.99998 0 9.34535 0 9.772V14.4538C0 14.8804 0.330235 15.2257 0.737473 15.2257H0.916268V16.0842C0.916268 17.141 1.73749 18 2.74652 18H12.1703C13.1788 18 14 17.1409 14 16.0842V4.53413L9.6532 0ZM1.87748 10.5739H2.68268L2.95417 11.1664C3.04633 11.3636 3.11553 11.523 3.18914 11.706H3.19813C3.27174 11.4989 3.33166 11.3541 3.41006 11.1664L3.67231 10.5739H4.47302L3.59863 12.1584L4.51907 13.8206H3.70908L3.42832 13.2328C3.31337 13.0063 3.23975 12.838 3.15201 12.6498H3.14302C3.07836 12.838 3.00029 13.0063 2.90356 13.2328L2.6458 13.8206H1.84509L2.74253 12.1778L1.87748 10.5739ZM12.1703 16.8268H2.74652C2.3558 16.8268 2.03769 16.4937 2.03769 16.0842V15.2257H10.8227C11.2299 15.2257 11.5602 14.8804 11.5602 14.4538V9.772C11.5602 9.34535 11.2299 8.99998 10.8227 8.99998H2.03769V1.91578C2.03769 1.50742 2.35583 1.1744 2.74652 1.1744L9.23387 1.16731V3.67736C9.23387 4.41052 9.80218 5.00595 10.5031 5.00595L12.8521 4.9989L12.8786 16.0842C12.8786 16.4937 12.561 16.8268 12.1703 16.8268ZM6.83563 13.204V13.8207H4.89799V10.574H5.60208V13.204H6.83563ZM8.02418 12.4574C7.50873 12.2697 7.17257 11.9708 7.17257 11.4989C7.17257 10.9446 7.61441 10.521 8.34628 10.521C8.69617 10.521 8.95361 10.598 9.138 10.6846L8.98143 11.2771C8.85723 11.2147 8.63628 11.1229 8.33244 11.1229C8.02864 11.1229 7.8814 11.2677 7.8814 11.436C7.8814 11.6431 8.0562 11.7349 8.4567 11.8937C9.00447 12.1056 9.26223 12.4045 9.26223 12.8623C9.26223 13.4065 8.86173 13.869 8.01041 13.869C7.65596 13.869 7.30603 13.7725 7.13123 13.6712L7.27404 13.0646C7.46261 13.1659 7.75265 13.2665 8.05167 13.2665C8.37378 13.2665 8.54412 13.127 8.54412 12.9151C8.54412 12.7127 8.39689 12.5968 8.02418 12.4574Z" fill="#44C283"/>
</svg>
